<svg version="1.2" baseProfile="tiny-ps" xmlns="http://www.w3.org/2000/svg" viewBox="0 0 211 269" width="211" height="269">
	<title>logo2-svg</title>
	<style>
		tspan { white-space:pre }
		.shp0 { fill: #105d9c } 
	</style>
	<path id="Layer" class="shp0" d="M48.57 113.91L59.14 113.91L59.14 124.48L48.57 124.48L48.57 113.91Z" />
	<path id="Layer copy" class="shp0" d="M33.57 113.91L44.14 113.91L44.14 124.48L33.57 124.48L33.57 113.91Z" />
	<path id="Layer" class="shp0" d="M65.72 227.13L65.72 216.86C71.23 216.83 73.98 212.98 73.98 205.33L73.98 171.76L85.34 171.76L85.34 205.44C85.05 220.44 78.51 227.67 65.72 227.13Z" />
	<path id="Layer" class="shp0" d="M118.93 202.46L118.93 200.46C118.52 187.88 111.73 181.39 98.55 180.98L98.55 170.62C99.97 170.51 101.39 170.5 102.81 170.59C104.23 170.68 105.64 170.86 107.03 171.14C108.43 171.42 109.8 171.8 111.14 172.26C112.49 172.73 113.79 173.29 115.06 173.94C120.86 177.43 124.82 181.84 126.93 187.17C127.43 188.38 127.87 189.61 128.24 190.86C128.61 192.11 128.92 193.38 129.15 194.67C129.38 195.95 129.54 197.25 129.64 198.55C129.73 199.86 129.75 201.16 129.7 202.47L138.7 202.47L138.7 135.76L150.48 135.76L150.48 211.99L90.99 211.99L90.99 202.42L118.93 202.46Z" />
	<path id="Layer" class="shp0" d="M85.32 119.52L85.32 159.03L74.1 159.03L74.1 110.93L100.73 106.78L100.27 43L150.65 0L150.33 128L138.41 127.98L138.41 21.81L108.88 46.93L109.31 105.44L122.42 103.4L122.42 144.91L112.24 144.91L112.24 115.01L85.32 119.52L85.32 119.52Z" />
	<path id="Layer" class="shp0" d="M189.34 200.24L189.81 189.67C197.93 181.59 202.85 172.99 201.17 167.51C199.49 162.03 192.29 158.03 181.17 155.97C190.52 177.28 190.16 201.6 180.17 222.62C170.18 243.64 151.55 259.29 129.12 265.49C106.69 271.7 82.67 267.86 63.3 254.96C43.92 242.07 31.1 221.4 28.17 198.31C13.94 209.19 6.73 219.82 9.04 227.25C11.35 234.68 23.78 239.56 42.29 240.32C42.85 240.32 43.46 240.32 44.03 240.32C45.47 242.33 49.68 246.37 52.26 248.78C50.75 248.82 49.12 249 47.65 249C45.71 249 43.8 248.96 41.94 248.89C18.97 247.96 4.39 241.14 0.83 229.79C-2.73 218.44 5.44 204.57 23.83 190.79C24.97 189.93 26.26 189.11 27.47 188.27C27.46 183.49 27.88 178.72 28.72 174.02C29.57 169.32 30.84 164.7 32.51 160.23C34.18 155.75 36.25 151.44 38.7 147.34C41.15 143.23 43.96 139.36 47.1 135.76L58.88 135.76L58.88 211.96L47.1 211.96L47.1 149.96C35.12 168.99 32.76 192.54 40.75 213.57C48.73 234.59 66.13 250.64 87.72 256.92C109.32 263.19 132.61 258.96 150.61 245.49C168.62 232.02 179.26 210.88 179.34 188.39C179.37 184.97 179.15 181.56 178.7 178.18C178.25 174.79 177.56 171.44 176.63 168.15C175.71 164.86 174.55 161.64 173.17 158.52C171.79 155.39 170.19 152.37 168.39 149.47L168.39 204.25C171.45 202.44 174.39 200.66 177.01 198.97L174.06 211.1C159.15 219.63 136.71 231.16 117.45 237.16C113.57 238.37 109.66 239.5 105.73 240.53C101.8 241.57 97.84 242.52 93.87 243.38C89.89 244.24 85.9 245.01 81.89 245.69C77.88 246.37 73.86 246.96 69.82 247.46C66.74 245.75 62.66 241.86 60.74 239.86C65.33 239.45 69.92 238.91 74.48 238.25C79.05 237.58 83.6 236.8 88.12 235.88C92.64 234.97 97.14 233.94 101.6 232.78C106.07 231.63 110.5 230.35 114.9 228.95C128.83 224.62 143.62 217.84 156.62 210.9L156.62 135.76L168.39 135.76C169.11 136.59 169.82 137.43 170.5 138.29C171.19 139.15 171.86 140.02 172.51 140.91C173.16 141.8 173.79 142.7 174.4 143.61C175.01 144.53 175.61 145.45 176.18 146.39C194 148.43 206.14 154.66 209.34 164.94C212.55 175.13 203.86 187.92 189.34 200.24Z" />
	<g id="Folder 1">
	</g>
</svg>