<svg version="1.2" baseProfile="tiny-ps" xmlns="http://www.w3.org/2000/svg" viewBox="0 0 1079 932" width="1079" height="932">
	<title>logo-svg</title>
	<style>
		tspan { white-space:pre }
		.shp0 { fill: #105d9c } 
	</style>
	<g id="Layer">
		<path id="Layer" class="shp0" d="M671.9 34.1C672.1 34 672.1 90.2 671.9 159L671.5 284L658.8 284L646 284L645.8 186.1L645.5 88.1L616.3 112.3L587.1 136.5L587.7 184C587.9 210.1 588.3 232 588.5 232.6C588.7 233.3 590.7 233.5 594.7 233C597.9 232.5 602.9 231.9 605.8 231.6L611 230.9L611 275.5L611 320L600 320L589 320L589 288C589 270.4 588.6 256 588.2 256C587.7 256 582.4 256.9 576.4 257.9C570.4 259 557.7 261.1 548.3 262.6L531 265.5L531 308.2L531 351L519 351L507 351L507 299.1L507 247.3L517.3 245.7C522.9 244.8 535.7 242.8 545.7 241.3L564 238.5L564 182.7L564 127L567.8 123.6C569.8 121.8 580.3 112.7 591 103.5C601.7 94.3 612.8 84.8 615.5 82.4C618.3 80.1 632 68.2 646 56.1C660 44 671.7 34.1 671.9 34.1Z" />
		<path id="Layer" class="shp0" d="M419 253L430.5 253L442 253L442 264.5L442 276L430.5 276L419 276L419 264.5L419 253Z" />
		<path id="Layer" class="shp0" d="M451 254L462.5 254L474 254L474 265.5L474 277L462.5 277L451 277L451 265.5L451 254Z" />
		<path id="Layer" class="shp0" d="M460.7 301L473 301L473 383L473 465L460.5 465L448 465L447.8 398.2L447.5 331.5L441.3 343.5C434.8 356.3 429.1 372.8 426.4 387.5C424 400 423.9 429.1 426.3 441.7C432.2 473.3 446.9 501 469.9 524C493.5 547.5 518.6 560.7 551.5 567.2C565.7 570 589.7 570.2 604.6 567.7C625.2 564.2 648.2 555.1 666 543.3C694.5 524.4 717.4 493.5 727.4 460.7C732.2 445 733.1 439.1 733.7 419.3C734.3 398.3 733.2 388.3 728.3 370C724.6 356.2 712.8 330.4 710.8 331.6C709.8 332.3 709.7 447.7 710.8 448.4C711.2 448.6 715.6 446.4 720.4 443.4C725.3 440.4 729 438.5 728.8 439.2C728.5 439.9 727.1 445.7 725.6 452L722.9 463.5L713.2 469C693.4 480.1 655.6 498.6 634.5 507.3C600 521.7 555.2 533.6 511.8 540.1L497 542.3L492.3 538.6C489.7 536.6 485.5 533 483.1 530.7L478.6 526.5L483.5 525.8C486.3 525.4 495.5 524.1 504 522.9C528.9 519.6 563.8 512 585 505.5C618.2 495.3 634.4 488.8 668.8 471.9L685 463.9L685 382.4L685 301L697.9 301L710.9 301L715.3 306.7C717.7 309.9 721.2 314.7 723.1 317.5C725 320.2 726.7 322.7 727 323.1C727.3 323.6 730.7 324.4 734.5 325C751.3 327.6 768.7 333.2 778.5 339.3C789.6 346.1 798.1 357.5 800.1 368.5C802.1 379.4 796.1 395.6 784.4 411C779.6 417.3 758.3 439 756.9 439C756.2 439 756.7 422.1 757.6 418.5C757.8 417.4 760.5 413.8 763.6 410.6C780.1 392.8 786.4 374.3 779.1 364.4C773.2 356.2 763.7 350.7 747.9 346.5L739 344.1L739 346.4C739 347.6 739.4 349 739.9 349.5C740.4 350.1 742.1 354.8 743.8 360C750.3 380.3 752.3 393.2 752.4 414.5C752.4 432.3 751.3 440.9 746.8 458.5C732.2 515.3 688.6 561.3 632 579.5C564.4 601.3 491.3 579.6 445.3 524.2C427.6 503 414.4 474.7 409 446.5C408.3 443.2 407.6 439.5 407.4 438.2C406.9 435.9 406.9 435.9 402.7 439.2C395.3 445 381 459.2 376.3 465.5C368.9 475.3 365.8 482.5 365.2 490.6C364.8 496.3 365.1 498.3 366.8 501.7C369.2 506.3 375.5 512.2 381.5 515.2C392.3 520.8 412.2 525.4 430.3 526.6L441 527.3L449.4 535.9C454.1 540.6 457.7 544.6 457.5 544.8C456.6 545.7 426.9 544.8 416.9 543.6C375.8 538.4 351.4 522.8 347 498.8C344.9 487.6 348.9 474 358.6 459.2C365.6 448.7 382.8 431.4 396.2 421.5L405.7 414.5L406.3 403.4C408.5 367.5 424.2 328.1 446.3 303.2C448.2 301.1 449.2 301 460.7 301Z" />
		<path id="Layer" class="shp0" d="M647 301L659.5 301L672 301L672 382.9L672 464.8L667.7 465.1C665.3 465.3 636.2 465.4 603.1 465.2L542.9 464.9L543.2 455.2L543.5 445.5L573.8 445.2L604 445L604 441.7C604 436.3 602.3 427.8 600.1 421.9C595.8 410.5 585 402.2 571.5 400C567.6 399.3 563.5 398.6 562.3 398.4C560.1 398 560 397.6 560 386.8L560 375.7L567.8 376.4C585.6 377.8 596.8 382.7 608 393.9C619.4 405.2 624.8 418 626.6 437.9L627.3 445L637.1 445L647 445L647 373L647 301Z" />
		<path id="Layer" class="shp0" d="M519 379L531 379L531 416.2C531 458.4 530.1 467.9 525.3 478.2C519.6 490.2 509.7 496.9 496.3 497.8L489 498.3L489 487.3L489 476.3L492.8 475.7C500.5 474.4 504.4 468.7 506 456.7C506.5 452.8 506.9 434.4 506.9 416C506.9 397.6 507 381.7 507 380.7C507 379.2 508.2 379 519 379Z" />
		<path id="Layer" class="shp0" d="M326 653.5C332.5 655.8 332.9 656.4 331.7 661.3C330.4 666.6 330.6 666.5 327.8 664.6C324.9 662.6 319.6 662.5 317.6 664.6C315.8 666.3 315.5 670.5 317 671.5C317.5 671.8 321.6 671.1 326.1 670C332.5 668.3 334.5 668.2 335.1 669.1C336.4 671.2 337.2 677.2 336.3 678C335.3 678.9 310 684 306.7 684C304.7 684 304.1 683.3 303.2 680C302.3 676.4 302.4 676 304 676C306.7 676 307.1 674.8 305.8 670.7C303.7 663.7 308.4 655.1 315.4 653.1C319.9 651.8 321.3 651.8 326 653.5Z" />
		<path id="Layer" class="shp0" d="M433 652L440.5 652L448 652L448 660L448 668L440.5 668L433 668L433 660L433 652Z" />
		<path id="Layer" class="shp0" d="M355 660L361.5 660L368 660L368 708L368 756L382 756.1C389.7 756.2 396.7 756.3 397.5 756.4C398.9 756.5 399.1 752.8 399.3 728L399.5 699.5L405.8 699.2L412 698.9L412 727.5L412 756L419.3 756.2C429.3 756.4 430.1 756.2 432.7 753.9C436.1 750.6 437 743.7 437 720.5L437 699L443.1 699L449.1 699L448.9 726.1L448.7 753.3L451.1 754.6C452.6 755.4 457.1 755.9 463.3 756L473 756L473 738.3C473 728.3 472.3 714.9 471.4 707.2C469.6 692.1 469.6 692 476.2 692L479.8 692L481.4 698.9C484.2 711.3 485 719.2 485 737.7L485 756L500 756L515 756L515 724L515 692L521.5 692L528 692L528 730L528 768.1L489.3 767.8C450.5 767.5 450.5 767.5 446.3 765.1L442.2 762.7L438.8 765.1L435.5 767.5L395.3 767.8L355 768.1L355 714L355 660Z" />
		<path id="Layer" class="shp0" d="M605 660L611 660L617 660L617 714L617 768L583 768L548.9 768L549.2 762.2L549.5 756.5L558.3 756.8L567 757L567 718L567 679L573 679L579 679L579.2 717.7L579.5 756.3L592.3 756.4L605 756.5L605 708.2L605 660Z" />
		<path id="Layer" class="shp0" d="M646 660L652.5 660L659 660L659 714.5L659 769L652.5 769L646 769L646 714.5L646 660Z" />
		<path id="Layer" class="shp0" d="M961 660L967.5 660L974 660L974 714L974 768L925.5 768L876.9 768L877.2 762.2L877.5 756.5L900.9 756.2L924.3 756L923.8 740.7C923 718.2 920.2 710.5 910.6 704.5C906.1 701.8 904.8 701.5 895.4 701.2L885.2 700.8L884.6 696.7C883.6 690.6 885 689.7 896.2 689.7C907.3 689.6 913.1 691.4 920.8 697.1C926.9 701.7 930.1 706.4 933.1 715.2C934.9 720.4 935.4 724.4 935.8 738.7L936.2 755.9L948.6 756.2L961 756.5L961 708.2L961 660Z" />
		<path id="Layer" class="shp0" d="M1004 660L1010.5 660L1017 660L1017 714.5L1017 769L1010.5 769L1004 769L1004 714.5L1004 660Z" />
		<path id="Layer" class="shp0" d="M152 669L159.5 669L167 669L167 676.5L167 684L159.5 684L152 684L152 676.5L152 669Z" />
		<path id="Layer" class="shp0" d="M168 669L175.5 669L183 669L183 676.5L183 684L175.5 684L168 684L168 676.5L168 669Z" />
		<path id="Layer" class="shp0" d="M425 669L432.5 669L440 669L440 677L440 685L432.5 685L425 685L425 677L425 669Z" />
		<path id="Layer" class="shp0" d="M441 669L448.5 669L456 669L456 677L456 685L448.5 685L441 685L441 677L441 669Z" />
		<path id="Layer" class="shp0" d="M514 669L521 669L528 669L528 676.5L528 684L521 684L514 684L514 676.5L514 669Z" />
		<path id="Layer" class="shp0" d="M753 669L760.5 669L768 669L768 676.5L768 684L760.5 684L753 684L753 676.5L753 669Z" />
		<path id="Layer" class="shp0" d="M769 669L776.5 669L784 669L784 676.5L784 684L776.5 684L769 684L769 676.5L769 669Z" />
		<path id="Layer" fill-rule="evenodd" class="shp0" d="M186.3 691.7L196 692.3L196 756L230 755.8L264.1 755.5L264.2 723.7L264.3 692L277 692L277 756L293.9 756C303.2 756 311.5 756.3 312.4 756.6C313.8 757.2 314 753.9 314 724.6L314 692L326 692L326 768.1L239.3 767.8L152.5 767.5L147.5 765.2C139.2 761.4 134.3 755.5 132.2 746.8C130.7 741.1 130.7 720.2 132.1 714C134.7 702.1 140.8 695 151 691.9C154.2 691 173.5 690.8 186.3 691.7ZM168.5 702.6C162 702 154.3 703.4 151.1 705.7C146.4 709.2 143.6 716.4 143.2 726.6C142.5 742.4 145.5 750.5 153.4 754.1C156.7 755.6 160 756 170.8 756L184 756L184 703L178.8 703C175.9 703 171.3 702.8 168.5 702.6Z" />
		<path id="Layer" fill-rule="evenodd" class="shp0" d="M790.3 691.7L800 692.3L800 768.2L778.3 767.8L756.5 767.5L750.5 764.5C743.8 761.1 738.8 755.4 736.8 748.7C736 746.1 735.5 738.9 735.5 730C735.5 718.4 735.9 714.3 737.4 709.7C740 701.6 745.9 695.4 753 693C759 690.9 772 690.4 790.3 691.7ZM771.5 702.6C762.4 701.8 755 704.4 751.4 709.7C746.6 716.9 745.7 737 749.8 746.1C753.5 754.5 757.4 756 775.1 756L788 756L788 703L782.3 703C779.1 703 774.3 702.8 771.5 702.6Z" />
		<path id="Layer" class="shp0" d="M845 692L850.9 692C855.3 692 856.9 692.4 857.4 693.6C858.3 696 858 763.2 857.1 774.1C856 785.6 853.3 792.6 847.9 797.4C843.1 801.8 838.1 803.2 827.7 802.8L819.5 802.5L819.2 796.8L818.9 791.2L828 791.3C837.1 791.5 837.2 791.5 840 788.4C844.6 783.2 845 778.5 845 733.5L845 692Z" />
		<path id="Layer" class="shp0" d="M256 773.9L262.8 774.2L269.5 774.5L269.5 781.5L269.5 788.5L262.8 788.8L256 789.1L256 781.5L256 773.9Z" />
		<path id="Layer" class="shp0" d="M272 773.9L278.8 774.2L285.5 774.5L285.5 781.5L285.5 788.5L278.8 788.8L272 789.1L272 781.5L272 773.9Z" />
		<path id="Layer" class="shp0" d="M493.2 842.6C493.7 842.9 494 843.9 494 844.9C494 846.4 493.1 846.6 485.3 846.2C477.5 845.8 476.2 846 473.8 847.9C470.2 850.8 469 855.5 469 866.7C469 883.3 472 886.7 486.3 886.2C493.3 885.9 494 886.1 494 887.8C494 889.3 493.1 889.9 490.3 890.4C476 892.7 467.4 889.1 464.9 879.7C463.5 874.5 463.5 857.5 464.9 852.4C466.2 847.6 470.6 843.1 475.2 841.9C478.4 841.1 491.6 841.7 493.2 842.6Z" />
		<path id="Layer" fill-rule="evenodd" class="shp0" d="M529.5 841.5C540.9 842.5 545.9 849.6 545.9 865C546 880.7 542.8 887.7 534.6 890C528.2 891.8 519.9 890.9 515.6 887.9C510 884.1 508.5 879.5 508.6 866C508.6 850.4 510.9 845.7 519.7 842.4C522.2 841.5 525.6 841.1 529.5 841.5ZM527.7 846C521.2 846 518.2 847.5 515.6 852C513.8 855 513.5 857.2 513.5 866.5C513.6 876.2 513.8 878 515.8 881.3C517.5 884 519.2 885.2 522.1 886C526 887.1 531.9 886.5 535.2 884.8C539.8 882.5 542.2 869 540.1 857.5C539.3 852.9 538.3 850.9 536 848.7C533.5 846.5 532.1 846 527.7 846Z" />
		<path id="Layer" class="shp0" d="M645.1 842.6C645.5 842.8 645.6 843.8 645.3 844.8C644.9 846.5 644 846.6 637 846.2C624.5 845.5 621 847.2 621 853.9C621 859 622.9 860.5 632.8 863.3C637.4 864.6 642.2 866.7 643.5 868C646.7 871 647.7 877.4 645.7 882.2C642.5 889.8 637.6 891.7 623.9 890.5C617 889.9 616 889.5 616 887.9C616 886.1 616.7 885.9 625.8 886.1C637.2 886.4 639.5 885.5 641.1 880.1C642 877.1 642 875.7 640.9 873.4C639.5 870.5 637.3 869.4 626.6 866.5C618.4 864.2 616 861.5 616 854.6C616 850.2 616.5 848.6 618.6 846.1C620 844.4 622.6 842.6 624.3 842C627.2 841.1 643.5 841.6 645.1 842.6Z" />
		<path id="Layer" class="shp0" d="M838.4 842.6C839.3 842.9 840 844 840 845C840 846.6 839.2 846.7 831.8 846.3C816.8 845.4 814.5 848 814.5 866.5C814.5 879.4 815.2 881.8 819.7 884.7C821.8 886.1 824.3 886.4 831.2 886.3C839.2 886.1 840 886.2 840 888C840 889.5 838.9 890 833.4 890.5C821.2 891.9 815.6 889.9 811.5 882.9C810 880.3 809.4 877.2 809.2 869.4C808.5 851.9 811.4 844.7 820 842.1C823.4 841.1 835.3 841.4 838.4 842.6Z" />
		<path id="Layer" fill-rule="evenodd" class="shp0" d="M951.5 843.6C956.2 845.8 959 850.7 960.2 859.1C962.2 872.2 958.9 885.1 952.7 889C951.6 889.6 947.5 890.4 943.6 890.7C937.5 891.1 935.9 890.8 932 888.8C924.7 885 923.5 881.9 923.5 866.5C923.5 854.6 923.7 853.1 925.9 849.3C928.1 845.4 931.4 843 936.5 841.7C939.8 840.8 947.8 841.8 951.5 843.6ZM942.9 846.3C931.3 845.7 928 850.2 928.1 866.3C928.2 881.7 931.3 886.4 941.4 886.4C951.9 886.4 955 882 955 867.1C955 856.1 954.4 853 951.5 849.5C949.5 847 948.5 846.6 942.9 846.3Z" />
		<path id="Layer" fill-rule="evenodd" class="shp0" d="M134 842L144.4 842C155.9 842 159.1 842.8 163.2 846.7C167 850.4 168.4 855.1 168.4 865C168.3 875.7 166.8 881.2 162.5 885.8L159.2 889.5L146.6 889.8L134 890.2L134 842ZM146.9 846.2L139 845.7L139 886L146.3 886C155.2 886 157.9 884.7 160.8 879C162.6 875.4 163 872.9 163 865.8C163 855.7 161.5 851 157.5 848.4C155.7 847.3 152.1 846.5 146.9 846.2Z" />
		<path id="Layer" class="shp0" d="M186 842L188.4 842L190.9 842L191.2 862.1C191.5 881.7 191.6 882.2 193.8 884.1C199 888.2 209.5 887.2 212.7 882.3C214.3 879.8 215.1 867.9 215 844.7C215 842.7 215.5 842 217 842C218.9 842 219 842.7 219 862.1C219 880.5 218.8 882.4 217 885C212.9 890.7 201.4 892.7 193.3 889.1C186.5 886 186 884.1 186 861.5L186 842Z" />
		<path id="Layer" fill-rule="evenodd" class="shp0" d="M239 842L250.1 842C265.2 842 269.6 844.2 271.5 852.8C272.9 859.6 269.2 868.4 264.1 870.1C262.8 870.6 264.9 876 270.6 887.2C272 889.9 272 890 269.2 890C266.5 890 266 889.3 262.2 881L258 872L244.1 872L243.8 880.7C243.5 889 243.4 889.5 241.3 889.8L239 890.1L239 842ZM243.9 846.4C243.7 846.6 243.6 851.4 243.8 856.9L244.1 867L252.3 867C261.8 867 264.4 865.8 265.9 860.5C266.8 857.3 266.1 851.6 264.6 849.2C264.2 848.6 262.3 847.6 260.2 847C256.6 846 244.8 845.6 243.9 846.4Z" />
		<path id="Layer" fill-rule="evenodd" class="shp0" d="M289 842L300 842C316.7 842 321.1 844.6 321.8 854.9C322.3 861.7 320.3 867 316.5 869C315.1 869.7 314 870.9 314 871.5C314 872.2 315.8 876.4 318 880.9C320.2 885.4 322 889.3 322 889.5C322 889.8 320.8 890 319.4 890C317.1 890 316.4 888.9 312.7 881L308.6 872L294 872L294 881C294 889.9 294 890 291.5 890L289 890L289 842ZM301 846L294 846L294 867L302.9 867C314 867 316 865.7 316.7 858.3C317.3 852.2 315.9 849.3 311.5 847.4C309.6 846.6 304.9 846 301 846Z" />
		<path id="Layer" fill-rule="evenodd" class="shp0" d="M348.1 842L359.6 842L363.4 855.7C365.5 863.3 368.4 874.1 370 879.8L372.8 890.1L370.2 889.8C367.9 889.5 367.4 888.8 366.2 883.7L364.8 878L343.1 878L342 882.2C341.4 884.6 340.7 887.3 340.4 888.2C340.1 889.3 338.9 890 337.4 890C336.1 890 335 889.8 335 889.6C335 889.4 336.1 885.5 337.4 880.9C338.7 876.3 341 868 342.5 862.5C343.9 857 345.8 850.1 346.6 847.2L348.1 842ZM354 846C352.5 846 351.7 847.2 350.5 851.2C349.7 854.1 348 860.2 346.7 864.7L344.3 873L353.7 873C358.8 873 363 872.7 363 872.2C363 871.8 361.9 867.7 360.6 863C359.2 858.3 357.6 852.6 357 850.2C356.2 847.1 355.4 846 354 846Z" />
		<path id="Layer" class="shp0" d="M388 842L390.5 842L393 842L393 853L393 864L405.5 864L418 864L418 853L418 842L420.5 842L423 842L423 866L423 890L420.5 890L418 890L418 879L418 867.9L405.8 868.2L393.5 868.5L393.2 879.2C392.9 889.9 392.9 890 390.5 890L388 890L388 866L388 842Z" />
		<path id="Layer" class="shp0" d="M564 841.9L568.6 842.2C571.5 842.4 573.6 843.1 574.1 844C574.6 844.8 578.3 853.4 582.4 863C591.8 885.3 592.2 886 593.2 886C593.6 886 594 876.1 594 864L594 842L596.5 842L599 842L599 866L599 890L594.2 890L589.4 890L586.7 884.2C585.3 881.1 582.1 873.8 579.6 868C577.2 862.2 573.9 854.8 572.3 851.5L569.5 845.5L569 867.5C568.5 889.4 568.5 889.5 566.3 889.8L564 890.1L564 866L564 841.9Z" />
		<path id="Layer" class="shp0" d="M676.2 842C692.2 842 693 842.1 693 844C693 845.7 692.2 845.9 685.8 846.2L678.5 846.5L678.3 868L678.1 889.5L675.8 889.5L673.5 889.5L673.3 868L673.1 846.5L665.6 846.2C660.2 846 658 845.5 658 844.6C658 843.9 658.3 843 658.7 842.7C659 842.3 666.9 842 676.2 842Z" />
		<path id="Layer" fill-rule="evenodd" class="shp0" d="M708 842L719.3 842C732.3 842 736.2 843.4 739.2 849C743.2 856.6 739.8 867.9 732.9 870.2C732.3 870.4 733.9 874.9 736.4 880.3L740.9 890L738.2 890C735.7 890 735 889.1 731.2 881L726.9 872L713 872L713 881C713 889.9 713 890 710.5 890L708 890L708 842ZM720 846L713 846L713 867L721.4 867C728.2 867 730.2 866.6 732.3 865C737.7 860.8 736.5 850 730.4 847.4C728.6 846.6 723.9 846 720 846Z" />
		<path id="Layer" class="shp0" d="M758 842L760.5 842L763 842L763 860.7C763 873.8 763.4 880.3 764.3 882C767 887.4 779.5 888.3 784.2 883.3C786.4 880.9 786.5 880.1 786.8 861.4L787.2 842L789.6 842L791.9 842L791.7 861.8L791.5 881.7L788.7 885.3C782.2 893.8 763.3 892.7 759.4 883.5C758.4 880.9 758 875.2 758 861L758 842Z" />
		<path id="Layer" class="shp0" d="M868.5 842C885.2 842 886 842.1 886 844C886 845.7 885.2 845.9 878.8 846.2L871.5 846.5L871.2 868.2L871 890L868.5 890L866 890L865.8 868.2L865.5 846.5L858.3 846.2C851.8 845.9 851 845.7 851 844C851 842.1 851.8 842 868.5 842Z" />
		<path id="Layer" class="shp0" d="M900 842L903 842L906 842L906 866.5L906 891L903 891L900 891L900 866.5L900 842Z" />
		<path id="Layer" class="shp0" d="M978 841.9L983.1 842.2L988.2 842.5L997.4 864.2C1002.4 876.2 1006.8 886 1007.3 886C1007.9 886 1008.6 847.4 1008.1 843.2C1008 842.5 1009 842 1010.5 842L1013 842L1013 866L1013 890L1008.6 890C1006.2 890 1003.8 889.4 1003.3 888.7C1002.8 888.1 998.4 878.2 993.6 866.7C988.7 855.3 984.4 846 983.9 846C983.4 846 983 855.8 983 868L983 890L980.5 890L978 890L978 865.9L978 841.9Z" />
	</g>
</svg>